<?xml version="1.0" encoding="UTF-8"?>
<svg version="1.1" xmlns="http://www.w3.org/2000/svg" width="100" height="100">
  <path d="M0 0 C0.66032227 -0.00350464 1.32064453 -0.00700928 2.00097656 -0.01062012 C4.18825732 -0.01943775 6.37521583 -0.01358837 8.5625 -0.00683594 C10.07942772 -0.00818258 11.59635501 -0.01012311 13.11328125 -0.01263428 C16.29431258 -0.01558558 19.47523169 -0.01128778 22.65625 -0.00195312 C26.73877902 0.00944149 30.82104509 0.00288204 34.90356445 -0.00909805 C38.03647858 -0.01631654 41.16933011 -0.01402879 44.30224609 -0.00884247 C45.80778026 -0.00750594 47.31332007 -0.00915382 48.81884766 -0.01380157 C50.92105212 -0.01886672 53.02282758 -0.01115721 55.125 0 C56.92130859 0.00238678 56.92130859 0.00238678 58.75390625 0.00482178 C61.5625 0.25878906 61.5625 0.25878906 63.5625 2.25878906 C63.75041915 4.87904627 63.81435785 7.39270221 63.78955078 10.01318359 C63.78984283 10.81326843 63.79013489 11.61335327 63.79043579 12.43768311 C63.78903956 15.0890986 63.7734647 17.74023501 63.7578125 20.39160156 C63.75408341 22.22720181 63.75123595 24.06280404 63.74923706 25.89840698 C63.7415924 30.73506138 63.7219368 35.57159609 63.6998291 40.40820312 C63.67579618 46.20846585 63.66659365 52.00876853 63.65492249 57.80906677 C63.63551285 66.62572417 63.59719612 75.44211884 63.5625 84.25878906 C39.8025 84.25878906 16.0425 84.25878906 -8.4375 84.25878906 C-8.51771762 63.87460085 -8.51771762 63.87460085 -8.53515625 55.20800781 C-8.54712743 49.28658479 -8.56131283 43.36522342 -8.58837891 37.44384766 C-8.61005623 32.67171425 -8.6220578 27.89964693 -8.62725449 23.12746811 C-8.63095946 21.30373977 -8.638194 19.48001518 -8.64896011 17.65631485 C-8.66340721 15.10852394 -8.66548081 12.56100864 -8.66455078 10.01318359 C-8.67174133 9.25361359 -8.67893188 8.49404358 -8.68634033 7.7114563 C-8.65803545 0.57986945 -6.79030405 0.00902237 0 0 Z M1.5625 10.25878906 C1.5625 13.55878906 1.5625 16.85878906 1.5625 20.25878906 C5.5225 20.25878906 9.4825 20.25878906 13.5625 20.25878906 C13.5625 16.95878906 13.5625 13.65878906 13.5625 10.25878906 C9.6025 10.25878906 5.6425 10.25878906 1.5625 10.25878906 Z M21.5625 10.25878906 C21.5625 13.55878906 21.5625 16.85878906 21.5625 20.25878906 C25.5225 20.25878906 29.4825 20.25878906 33.5625 20.25878906 C33.5625 16.95878906 33.5625 13.65878906 33.5625 10.25878906 C29.6025 10.25878906 25.6425 10.25878906 21.5625 10.25878906 Z M41.5625 10.25878906 C41.5625 13.55878906 41.5625 16.85878906 41.5625 20.25878906 C45.5225 20.25878906 49.4825 20.25878906 53.5625 20.25878906 C53.5625 16.95878906 53.5625 13.65878906 53.5625 10.25878906 C49.6025 10.25878906 45.6425 10.25878906 41.5625 10.25878906 Z M1.5625 28.25878906 C1.5625 31.55878906 1.5625 34.85878906 1.5625 38.25878906 C5.5225 38.25878906 9.4825 38.25878906 13.5625 38.25878906 C13.5625 34.95878906 13.5625 31.65878906 13.5625 28.25878906 C9.6025 28.25878906 5.6425 28.25878906 1.5625 28.25878906 Z M21.5625 28.25878906 C21.5625 31.55878906 21.5625 34.85878906 21.5625 38.25878906 C25.5225 38.25878906 29.4825 38.25878906 33.5625 38.25878906 C33.5625 34.95878906 33.5625 31.65878906 33.5625 28.25878906 C29.6025 28.25878906 25.6425 28.25878906 21.5625 28.25878906 Z M41.5625 28.25878906 C41.5625 31.55878906 41.5625 34.85878906 41.5625 38.25878906 C45.5225 38.25878906 49.4825 38.25878906 53.5625 38.25878906 C53.5625 34.95878906 53.5625 31.65878906 53.5625 28.25878906 C49.6025 28.25878906 45.6425 28.25878906 41.5625 28.25878906 Z M1.5625 46.25878906 C1.5625 49.55878906 1.5625 52.85878906 1.5625 56.25878906 C5.5225 56.25878906 9.4825 56.25878906 13.5625 56.25878906 C13.5625 52.95878906 13.5625 49.65878906 13.5625 46.25878906 C9.6025 46.25878906 5.6425 46.25878906 1.5625 46.25878906 Z M21.5625 46.25878906 C21.5625 49.55878906 21.5625 52.85878906 21.5625 56.25878906 C25.5225 56.25878906 29.4825 56.25878906 33.5625 56.25878906 C33.5625 52.95878906 33.5625 49.65878906 33.5625 46.25878906 C29.6025 46.25878906 25.6425 46.25878906 21.5625 46.25878906 Z M41.5625 46.25878906 C41.5625 49.55878906 41.5625 52.85878906 41.5625 56.25878906 C45.5225 56.25878906 49.4825 56.25878906 53.5625 56.25878906 C53.5625 52.95878906 53.5625 49.65878906 53.5625 46.25878906 C49.6025 46.25878906 45.6425 46.25878906 41.5625 46.25878906 Z M1.5625 64.25878906 C1.5625 67.55878906 1.5625 70.85878906 1.5625 74.25878906 C5.5225 74.25878906 9.4825 74.25878906 13.5625 74.25878906 C13.5625 70.95878906 13.5625 67.65878906 13.5625 64.25878906 C9.6025 64.25878906 5.6425 64.25878906 1.5625 64.25878906 Z M21.5625 64.25878906 C21.5625 69.53878906 21.5625 74.81878906 21.5625 80.25878906 C25.5225 80.25878906 29.4825 80.25878906 33.5625 80.25878906 C33.5625 74.97878906 33.5625 69.69878906 33.5625 64.25878906 C29.6025 64.25878906 25.6425 64.25878906 21.5625 64.25878906 Z M41.5625 64.25878906 C41.5625 67.55878906 41.5625 70.85878906 41.5625 74.25878906 C45.5225 74.25878906 49.4825 74.25878906 53.5625 74.25878906 C53.5625 70.95878906 53.5625 67.65878906 53.5625 64.25878906 C49.6025 64.25878906 45.6425 64.25878906 41.5625 64.25878906 Z" fill="#E6E6E6" transform="translate(22.4375,7.7412109375)"/>
</svg>